{
  "source": "C:\\Users\\Peter\\Desktop\\stuff\\MIUN\\quantitative_research\\video_compression\\videos\\UVG\\Beauty_1920x1080_120fps_420_8bit_YUV.y4m",
  "output": "C:\\Users\\Peter\\Desktop\\stuff\\MIUN\\quantitative_research\\video_compression\\compressed_videos\\UVG\\vp9\\1.5\\Beauty_1920x1080_120fps_420_8bit_YUV_vp9.webm",
  "codec": "vp9",
  "ok": "[yuv4mpegpipe @ 0000023f0b9b52c0] Stream #0: not enough frames to estimate rate; consider increasing probesize\nInput #0, yuv4mpegpipe, from 'C:\\Users\\Peter\\Desktop\\stuff\\MIUN\\quantitative_research\\video_compression\\videos\\UVG\\Beauty_1920x1080_120fps_420_8bit_YUV.y4m':\n  Duration: 00:00:05.00, start: 0.000000, bitrate: 2985989 kb/s\n  Stream #0:0: Video: rawvideo (I420 / 0x30323449), yuv420p(progressive), 1920x1080, 120 fps, 120 tbr, 120 tbn\n[out#0/webm @ 0000023f0b9b9b80] Codec AVOption b:a (set bitrate (in bits/s)) has not been used for any stream. The most likely reason is either wrong type (e.g. a video option with no video streams) or that it is a private option of some decoder which was not actually used for any stream.\nStream mapping:\n  Stream #0:0 -> #0:0 (rawvideo (native) -> vp9 (libvpx-vp9))\nPress [q] to stop, [?] for help\n[libvpx-vp9 @ 0000023f0b9bcec0] v1.15.2-100-g40561f514\nOutput #0, webm, to 'C:\\Users\\Peter\\Desktop\\stuff\\MIUN\\quantitative_research\\video_compression\\compressed_videos\\UVG\\vp9\\1.5\\Beauty_1920x1080_120fps_420_8bit_YUV_vp9.webm':\n  Metadata:\n    encoder         : Lavf62.3.100\n  Stream #0:0: Video: vp9, yuv420p(tv, progressive), 1920x1080, q=2-31, 1500 kb/s, 120 fps, 1k tbn\n    Metadata:\n      encoder         : Lavc62.11.100 libvpx-vp9\n    Side data:\n      cpb: bitrate max/min/avg: 0/0/0 buffer size: 1500000 vbv_delay: N/A\nframe=    0 fps=0.0 q=0.0 size=       0KiB time=N/A bitrate=N/A speed=N/A elapsed=0:00:00.51    \nframe=    1 fps=0.9 q=49.0 size=       0KiB time=N/A bitrate=N/A speed=N/A elapsed=0:00:01.08    \nframe=    5 fps=2.9 q=56.0 size=       0KiB time=00:00:00.04 bitrate=  92.4kbits/s speed=0.0244x elapsed=0:00:01.70    \nframe=    9 fps=4.0 q=55.0 size=       0KiB time=00:00:00.07 bitrate=  51.3kbits/s speed=0.0332x elapsed=0:00:02.26    \nframe=   12 fps=4.3 q=56.0 size=       0KiB time=00:00:00.09 bitrate=  42.0kbits/s speed=0.0326x elapsed=0:00:02.81    \nframe=   15 fps=4.3 q=56.0 size=       0KiB time=00:00:00.11 bitrate=  33.0kbits/s speed=0.0332x elapsed=0:00:03.50    \nframe=   18 fps=4.3 q=55.0 size=       0KiB time=00:00:00.14 bitrate=  27.2kbits/s speed=0.034x elapsed=0:00:04.16    \nframe=   20 fps=4.1 q=56.0 size=       0KiB time=00:00:00.16 bitrate=  23.1kbits/s speed=0.0338x elapsed=0:00:04.92    \nframe=   23 fps=4.1 q=57.0 size=       0KiB time=00:00:00.19 bitrate=  20.1kbits/s speed=0.0344x elapsed=0:00:05.57    \nframe=   27 fps=4.4 q=58.0 size=       0KiB time=00:00:00.22 bitrate=  17.1kbits/s speed=0.0369x elapsed=0:00:06.09    \nframe=   30 fps=4.5 q=58.0 size=       0KiB time=00:00:00.25 bitrate=  15.4kbits/s speed=0.0376x elapsed=0:00:06.64    \nframe=   35 fps=4.9 q=57.0 size=       0KiB time=00:00:00.28 bitrate=  13.6kbits/s speed=0.0393x elapsed=0:00:07.20    \nframe=   39 fps=5.0 q=56.0 size=       0KiB time=00:00:00.32 bitrate=  11.8kbits/s speed=0.0415x elapsed=0:00:07.83    \nframe=   43 fps=5.1 q=56.0 size=       0KiB time=00:00:00.35 bitrate=  10.7kbits/s speed=0.0427x elapsed=0:00:08.39    \nframe=   46 fps=5.1 q=44.0 size=       0KiB time=00:00:00.37 bitrate=  10.3kbits/s speed=0.0419x elapsed=0:00:08.94    \nframe=   50 fps=5.2 q=56.0 size=       0KiB time=00:00:00.41 bitrate=   9.2kbits/s speed=0.0434x elapsed=0:00:09.59    \nframe=   55 fps=5.4 q=56.0 size=       0KiB time=00:00:00.45 bitrate=   8.6kbits/s speed=0.0441x elapsed=0:00:10.20    \nframe=   59 fps=5.4 q=56.0 size=       0KiB time=00:00:00.48 bitrate=   8.0kbits/s speed=0.0445x elapsed=0:00:10.85    \nframe=   61 fps=5.3 q=41.0 size=       0KiB time=00:00:00.50 bitrate=   7.6kbits/s speed=0.0442x elapsed=0:00:11.50    \nframe=   66 fps=5.5 q=54.0 size=       0KiB time=00:00:00.54 bitrate=   7.1kbits/s speed=0.045x elapsed=0:00:12.04    \nframe=   71 fps=5.6 q=54.0 size=       0KiB time=00:00:00.58 bitrate=   6.6kbits/s speed=0.046x elapsed=0:00:12.67    \nframe=   75 fps=5.6 q=55.0 size=       0KiB time=00:00:00.62 bitrate=   6.2kbits/s speed=0.0469x elapsed=0:00:13.32    \nframe=   79 fps=5.6 q=56.0 size=       0KiB time=00:00:00.65 bitrate=   5.9kbits/s speed=0.0462x elapsed=0:00:14.07    \nframe=   84 fps=5.7 q=55.0 size=       0KiB time=00:00:00.69 bitrate=   5.6kbits/s speed=0.047x elapsed=0:00:14.72    \nframe=   88 fps=5.7 q=56.0 size=       0KiB time=00:00:00.72 bitrate=   5.3kbits/s speed=0.0471x elapsed=0:00:15.37    \nframe=   91 fps=5.7 q=39.0 size=       0KiB time=00:00:00.75 bitrate=   5.1kbits/s speed=0.0468x elapsed=0:00:16.02    \nframe=   96 fps=5.8 q=55.0 size=       0KiB time=00:00:00.79 bitrate=   4.9kbits/s speed=0.0476x elapsed=0:00:16.63    \nframe=  100 fps=5.8 q=56.0 size=       0KiB time=00:00:00.83 bitrate=   4.6kbits/s speed=0.0482x elapsed=0:00:17.27    \nframe=  104 fps=5.8 q=57.0 size=       0KiB time=00:00:00.85 bitrate=   4.5kbits/s speed=0.0481x elapsed=0:00:17.83    \nframe=  105 fps=5.7 q=57.0 size=       0KiB time=00:00:00.87 bitrate=   4.4kbits/s speed=0.0471x elapsed=0:00:18.55    \nframe=  109 fps=5.7 q=57.0 size=       0KiB time=00:00:00.90 bitrate=   4.2kbits/s speed=0.0471x elapsed=0:00:19.26    \nframe=  111 fps=5.6 q=57.0 size=       0KiB time=00:00:00.92 bitrate=   4.2kbits/s speed=0.0466x elapsed=0:00:19.86    \nframe=  115 fps=5.6 q=58.0 size=       0KiB time=00:00:00.95 bitrate=   4.1kbits/s speed=0.0462x elapsed=0:00:20.56    \nframe=  116 fps=5.5 q=58.0 size=       0KiB time=00:00:00.96 bitrate=   4.0kbits/s speed=0.0455x elapsed=0:00:21.25    \nframe=  117 fps=5.4 q=39.0 size=       0KiB time=00:00:00.97 bitrate=   3.9kbits/s speed=0.0448x elapsed=0:00:21.78    \nframe=  121 fps=5.4 q=58.0 size=       0KiB time=00:00:01.00 bitrate=   3.8kbits/s speed=0.0448x elapsed=0:00:22.34    \nframe=  124 fps=5.4 q=58.0 size=       0KiB time=00:00:01.03 bitrate=   3.7kbits/s speed=0.045x elapsed=0:00:22.96    \nframe=  126 fps=5.3 q=58.0 size=       0KiB time=00:00:01.05 bitrate=   3.7kbits/s speed=0.0445x elapsed=0:00:23.57    \nframe=  128 fps=5.3 q=57.0 size=       0KiB time=00:00:01.06 bitrate=   3.6kbits/s speed=0.0441x elapsed=0:00:24.17    \nframe=  130 fps=5.3 q=57.0 size=     171KiB time=00:00:01.08 bitrate=1292.7kbits/s speed=0.0438x elapsed=0:00:24.74    \nframe=  135 fps=5.3 q=56.0 size=     171KiB time=00:00:01.10 bitrate=1263.5kbits/s speed=0.0437x elapsed=0:00:25.37    \nframe=  139 fps=5.3 q=56.0 size=     171KiB time=00:00:01.15 bitrate=1217.7kbits/s speed=0.0439x elapsed=0:00:26.18    \nframe=  142 fps=5.3 q=57.0 size=     171KiB time=00:00:01.18 bitrate=1183.4kbits/s speed=0.0439x elapsed=0:00:26.97    \nframe=  144 fps=5.2 q=36.0 size=     171KiB time=00:00:01.20 bitrate=1167.0kbits/s speed=0.0436x elapsed=0:00:27.54    \nframe=  148 fps=5.3 q=56.0 size=     171KiB time=00:00:01.23 bitrate=1135.5kbits/s speed=0.0439x elapsed=0:00:28.08    \nframe=  152 fps=5.3 q=55.0 size=     171KiB time=00:00:01.26 bitrate=1105.6kbits/s speed=0.0442x elapsed=0:00:28.63    \nframe=  157 fps=5.4 q=54.0 size=     171KiB time=00:00:01.30 bitrate=1077.2kbits/s speed=0.0445x elapsed=0:00:29.19    \nframe=  162 fps=5.4 q=52.0 size=     171KiB time=00:00:01.33 bitrate=1050.3kbits/s speed=0.0446x elapsed=0:00:29.92    \nframe=  165 fps=5.4 q=54.0 size=     171KiB time=00:00:01.37 bitrate=1018.5kbits/s speed=0.0449x elapsed=0:00:30.65    \nframe=  168 fps=5.4 q=56.0 size=     171KiB time=00:00:01.40 bitrate=1000.3kbits/s speed=0.0449x elapsed=0:00:31.19    \nframe=  172 fps=5.4 q=56.0 size=     171KiB time=00:00:01.43 bitrate= 977.0kbits/s speed=0.0452x elapsed=0:00:31.71    \nframe=  173 fps=5.4 q=55.0 size=     171KiB time=00:00:01.44 bitrate= 971.4kbits/s speed=0.0447x elapsed=0:00:32.23    \nframe=  177 fps=5.4 q=54.0 size=     171KiB time=00:00:01.47 bitrate= 949.4kbits/s speed=0.045x elapsed=0:00:32.75    \nframe=  180 fps=5.4 q=53.0 size=     171KiB time=00:00:01.50 bitrate= 933.6kbits/s speed=0.045x elapsed=0:00:33.34    \nframe=  183 fps=5.4 q=54.0 size=     171KiB time=00:00:01.52 bitrate= 918.3kbits/s speed=0.045x elapsed=0:00:33.92    \nframe=  187 fps=5.4 q=54.0 size=     171KiB time=00:00:01.55 bitrate= 898.7kbits/s speed=0.0452x elapsed=0:00:34.48    \n[in#0/yuv4mpegpipe @ 0000023f0b9b5040] Error during demuxing: Immediate exit requested\n[out#0/webm @ 0000023f0b9b9b80] Error writing trailer: Immediate exit requested\n[out#0/webm @ 0000023f0b9b9b80] Error closing file: Immediate exit requested\n[out#0/webm @ 0000023f0b9b9b80] video:343KiB audio:0KiB subtitle:0KiB other streams:0KiB global headers:0KiB muxing overhead: 0.632668%\nframe=  240 fps=5.7 q=56.0 Lsize=     345KiB time=00:00:02.00 bitrate=1414.4kbits/s speed=0.0473x elapsed=0:00:42.28    \nExiting normally, received signal 2.\n",
  "seconds": 43.691866636276245
}